<svg width="20" height="19" viewBox="0 0 20 19" fill="none" xmlns="http://www.w3.org/2000/svg">
<path d="M17.4786 15.4039C19.0455 13.7681 20 11.6176 20 9.26369C20 6.81456 18.9669 4.58617 17.2855 2.92797V2.92765C17.2841 2.92573 17.2821 2.92509 17.281 2.92349C15.5297 1.19885 13.0759 0.094873 10.3466 0.00830538L10.3462 0.00798594L10.1514 0.00319438C10.101 0.00159719 10.0507 0 10 0C9.94931 0 9.89897 0.00159719 9.84862 0.00319438L9.65448 0.00798594L9.65414 0.00830538C6.92483 0.094873 4.47103 1.19885 2.71966 2.92349C2.71828 2.92509 2.71621 2.92573 2.71517 2.92765C2.71517 2.92765 2.71517 2.92797 2.71483 2.92828C1.0331 4.58617 0 6.81456 0 9.26369C0 11.6176 0.954483 13.7681 2.52138 15.4039C2.52345 15.4068 2.52345 15.41 2.52586 15.4129C2.53207 15.4209 2.54103 15.4247 2.54759 15.432C4.30828 17.2554 6.83448 18.43 9.65379 18.5194L9.65414 18.5197L9.84828 18.5245C9.89897 18.5258 9.94931 18.5274 10 18.5274C10.0507 18.5274 10.101 18.5258 10.1514 18.5242L10.3455 18.5194L10.3459 18.5191C13.1683 18.4293 15.6972 17.2525 17.4579 15.4253C17.4624 15.4199 17.4697 15.4183 17.4738 15.4125C17.4766 15.41 17.4766 15.4068 17.4786 15.4039ZM0.698276 9.58313H4.83724C4.87621 10.9372 5.16172 12.253 5.67 13.4857C4.68931 13.8144 3.75172 14.2552 2.8731 14.8053C1.58103 13.3816 0.776897 11.5668 0.698276 9.58313ZM3.06138 3.52116C3.91931 4.03801 4.83276 4.452 5.78552 4.76122C5.20207 6.07315 4.87931 7.48762 4.83724 8.94425H0.698276C0.78069 6.86567 1.65931 4.973 3.06138 3.52116ZM19.3017 8.94425H15.1628C15.1207 7.48762 14.7979 6.07315 14.2145 4.76122C15.1672 4.452 16.0807 4.03801 16.9386 3.52116C18.3407 4.973 19.2193 6.86567 19.3017 8.94425ZM9.65517 4.77975C8.65828 4.75355 7.67966 4.61587 6.73414 4.36991C7.4331 3.04169 8.42 1.84284 9.65517 0.844593V4.77975ZM9.65517 5.41862V8.94425H5.5269C5.56931 7.55534 5.88379 6.20827 6.44621 4.95927C7.48276 5.2375 8.55897 5.39147 9.65517 5.41862ZM10.3448 5.41862C11.441 5.39147 12.5172 5.23782 13.5541 4.95927C14.1166 6.20827 14.431 7.55534 14.4734 8.94425H10.3448V5.41862ZM10.3448 4.77975V0.844593C11.58 1.84284 12.5669 3.04169 13.2659 4.36991C12.3203 4.61587 11.3417 4.75355 10.3448 4.77975ZM13.9341 4.17569C13.2717 2.88995 12.3524 1.71857 11.2141 0.714582C13.2334 0.959271 15.0503 1.80514 16.4497 3.05223C15.6552 3.51924 14.8124 3.8949 13.9341 4.17569ZM6.06586 4.17569C5.18759 3.8949 4.34483 3.51924 3.55069 3.05223C4.94966 1.80514 6.7669 0.959271 8.78621 0.714582C7.64759 1.71857 6.72828 2.88995 6.06586 4.17569ZM5.5269 9.58313H9.65517V12.7896C8.51483 12.8178 7.39759 12.9826 6.32379 13.2819C5.83862 12.1144 5.56586 10.8669 5.5269 9.58313ZM9.65517 13.4285V17.6828C8.3331 16.6143 7.29655 15.3161 6.59172 13.8761C7.58034 13.6061 8.60724 13.456 9.65517 13.4285ZM10.3448 17.6828V13.4285C11.3928 13.4557 12.4197 13.6061 13.4083 13.8757C12.7034 15.3161 11.6669 16.6143 10.3448 17.6828ZM10.3448 12.7896V9.58313H14.4731C14.4341 10.8669 14.1614 12.1144 13.6759 13.2822C12.6024 12.9826 11.4852 12.8178 10.3448 12.7896ZM15.1628 9.58313H19.3017C19.2231 11.5668 18.4193 13.3816 17.1269 14.8053C16.2483 14.2552 15.3107 13.8144 14.33 13.4857C14.8386 12.253 15.1238 10.9372 15.1628 9.58313ZM3.34172 15.2838C4.15759 14.7817 5.02621 14.3779 5.93379 14.076C6.60448 15.4688 7.56724 16.7379 8.78586 17.8128C6.66483 17.5557 4.76655 16.6357 3.34172 15.2838ZM11.2141 17.8128C12.4328 16.7382 13.3955 15.4691 14.0662 14.076C14.9738 14.3779 15.8421 14.7817 16.6583 15.2838C15.2334 16.6357 13.3352 17.5557 11.2141 17.8128Z" fill="#5AC7C4"/>
</svg>
