<svg width="241" height="39" viewBox="0 0 241 39" fill="none" xmlns="http://www.w3.org/2000/svg">
<g clip-path="url(#clip0_522_12)">
<path fill-rule="evenodd" clip-rule="evenodd" d="M44.8317 3.20022C43.7301 2.70512 42.367 2.5592 40.8437 2.80718C39.9044 2.96068 38.9031 3.26432 37.8647 3.72737C36.8677 4.17355 35.9132 4.73275 35.0088 5.38135L38.6775 7.03112C39.5819 6.38252 40.5364 5.82332 41.5323 5.37798C42.5707 4.91409 43.571 4.61045 44.5113 4.45694C46.0346 4.20897 47.3977 4.35489 48.4993 4.84999L44.8317 3.20022Z" fill="#F0A72E"/>
<mask id="mask0_522_12" style="mask-type:luminance" maskUnits="userSpaceOnUse" x="0" y="0" width="36" height="36">
<path fill-rule="evenodd" clip-rule="evenodd" d="M0 0.627777H35.5079V35.8876H0V0.627777Z" fill="white"/>
</mask>
<g mask="url(#mask0_522_12)">
<path fill-rule="evenodd" clip-rule="evenodd" d="M31.84 1.21882C30.5673 0.646125 28.9907 0.478281 27.2298 0.765051C26.1424 0.942173 24.9841 1.29304 23.7823 1.83032C21.7829 2.72436 19.9055 4.02326 18.2776 5.55916C15.2822 8.38553 13.1313 12.014 12.6105 15.392C11.7115 15.5489 10.7483 15.8466 9.76005 16.2886C8.03628 17.0586 6.4182 18.177 5.01587 19.4995C2.01071 22.331 -0.0116153 26.0961 -0.000719124 29.3737C0.00908741 31.764 1.09761 33.4467 2.85516 34.237L6.5228 35.8876C4.76417 35.0964 3.67564 33.4138 3.66692 31.0235C3.65494 27.7459 5.67835 23.9807 8.68242 21.1493C10.0858 19.8268 11.7028 18.7084 13.4277 17.9383C14.4149 17.4964 15.3792 17.1986 16.277 17.0418C16.7979 13.6638 18.9499 10.0353 21.9452 7.20893C23.5731 5.67303 25.4494 4.37413 27.4499 3.48008C28.6507 2.94281 29.809 2.59194 30.8964 2.41482C32.6583 2.12721 34.2339 2.29589 35.5076 2.86859L31.84 1.21882Z" fill="#F0A72E"/>
</g>
<path fill-rule="evenodd" clip-rule="evenodd" d="M27.4499 3.48027C33.1224 0.944893 37.8361 2.55249 38.6773 7.03116C39.5817 6.38255 40.5362 5.82335 41.5321 5.37801C46.9388 2.96156 51.3386 4.90231 51.3561 9.71077C51.3735 14.5201 47.002 20.3803 41.5953 22.7967L13.4909 35.3572C8.07656 37.7771 3.68433 35.8329 3.66689 31.0237C3.64946 26.2144 8.01228 20.3584 13.4266 17.9385C14.4159 17.4966 15.3792 17.1988 16.277 17.0419C17.0811 11.8278 21.7687 6.01903 27.4499 3.48027" fill="#FFCA00"/>
<path fill-rule="evenodd" clip-rule="evenodd" d="M73.4766 5.56167C72.375 5.06657 71.0119 4.92065 69.4887 5.16863C68.5483 5.32213 67.5481 5.62577 66.5086 6.08882C65.5127 6.53416 64.5582 7.0942 63.6538 7.7428L67.3214 9.39257C68.2258 8.74397 69.1803 8.18392 70.1773 7.73943C71.2146 7.2747 72.216 6.9719 73.1552 6.81839C74.6796 6.57042 76.0416 6.71634 77.1432 7.21144L73.4766 5.56167Z" fill="#D43E3E"/>
<path fill-rule="evenodd" clip-rule="evenodd" d="M60.4799 3.57496C59.2073 3.00226 57.6306 2.83358 55.8698 3.12035C54.7823 3.29747 53.6262 3.64834 52.4266 4.18477C50.4337 5.07544 48.5617 6.37096 46.9371 7.90434C43.9396 10.7332 41.7843 14.3685 41.2624 17.7498C40.3558 17.9101 39.4002 18.2044 38.4043 18.6498C36.6827 19.419 35.0668 20.5374 33.6645 21.8591C30.6593 24.6905 28.6327 28.4573 28.6446 31.7349C28.6534 34.1244 29.7441 35.8053 31.5005 36.5965L35.1682 38.2454C33.4106 37.4551 32.3199 35.7741 32.3112 33.3847C32.2992 30.1071 34.327 26.3402 37.3311 23.5088C38.7345 22.1863 40.3504 21.0687 42.0709 20.2995C43.069 19.8542 44.0235 19.5598 44.93 19.3996C45.452 16.0174 47.6072 12.383 50.6047 9.55411C52.2294 8.02073 54.1013 6.72521 56.0942 5.83369C57.2928 5.29811 58.45 4.94724 59.5363 4.77011C61.2982 4.48334 62.8738 4.65203 64.1476 5.22473L60.4799 3.57496Z" fill="#D43E3E"/>
<path fill-rule="evenodd" clip-rule="evenodd" d="M56.0938 5.83388C61.7663 3.29935 66.4811 4.91369 67.3212 9.39236C68.2256 8.74375 69.1801 8.18455 70.1771 7.73921C75.5837 5.32276 79.9825 7.26351 80 12.072C80.0174 16.8813 75.6469 22.7415 70.2403 25.1579L42.1348 37.7184C36.7292 40.1349 32.3293 38.1941 32.3119 33.3849C32.2944 28.5756 36.6649 22.7153 42.0716 20.2989C43.0686 19.8544 44.0241 19.56 44.9296 19.3989C45.7338 14.1856 50.4213 8.36926 56.0938 5.83388" fill="#FA7564"/>
<path d="M88.728 28V12.4H93.144L95.496 18.784C95.64 19.216 95.776 19.664 95.904 20.128C96.032 20.592 96.168 21.056 96.312 21.52H96.408C96.552 21.056 96.688 20.592 96.816 20.128C96.944 19.664 97.08 19.216 97.224 18.784L99.48 12.4H103.896V28H100.152V23.392C100.152 22.864 100.184 22.272 100.248 21.616C100.312 20.944 100.384 20.272 100.464 19.6C100.544 18.928 100.616 18.336 100.68 17.824H100.584L99.288 21.568L97.368 26.728H95.16L93.24 21.568L91.992 17.824H91.896C91.96 18.336 92.032 18.928 92.112 19.6C92.192 20.272 92.264 20.944 92.328 21.616C92.392 22.272 92.424 22.864 92.424 23.392V28H88.728ZM107.011 28V12.4H117.091V15.856H111.139V18.304H116.227V21.76H111.139V24.544H117.331V28H107.011ZM122.973 28V15.856H118.845V12.4H131.229V15.856H127.101V28H122.973ZM133.194 28V12.4H143.274V15.856H137.322V18.304H142.41V21.76H137.322V24.544H143.514V28H133.194ZM152.756 28.288C151.316 28.288 150.052 27.968 148.964 27.328C147.876 26.672 147.028 25.736 146.42 24.52C145.812 23.304 145.508 21.84 145.508 20.128C145.508 18.416 145.812 16.968 146.42 15.784C147.028 14.584 147.876 13.672 148.964 13.048C150.052 12.424 151.316 12.112 152.756 12.112C154.196 12.112 155.46 12.424 156.548 13.048C157.636 13.672 158.484 14.584 159.092 15.784C159.7 16.968 160.004 18.416 160.004 20.128C160.004 21.84 159.7 23.304 159.092 24.52C158.484 25.736 157.636 26.672 156.548 27.328C155.46 27.968 154.196 28.288 152.756 28.288ZM152.756 24.736C153.7 24.736 154.436 24.32 154.964 23.488C155.508 22.656 155.78 21.536 155.78 20.128C155.78 18.704 155.508 17.608 154.964 16.84C154.436 16.056 153.7 15.664 152.756 15.664C151.828 15.664 151.092 16.056 150.548 16.84C150.004 17.608 149.732 18.704 149.732 20.128C149.732 21.536 150.004 22.656 150.548 23.488C151.092 24.32 151.828 24.736 152.756 24.736Z" fill="#5AC7C4"/>
<path d="M162.448 28V12.4H172.624V15.856H166.576V18.832H171.76V22.288H166.576V28H162.448ZM181.307 28.288C179.867 28.288 178.603 27.968 177.515 27.328C176.427 26.672 175.579 25.736 174.971 24.52C174.363 23.304 174.059 21.84 174.059 20.128C174.059 18.416 174.363 16.968 174.971 15.784C175.579 14.584 176.427 13.672 177.515 13.048C178.603 12.424 179.867 12.112 181.307 12.112C182.747 12.112 184.011 12.424 185.099 13.048C186.187 13.672 187.035 14.584 187.643 15.784C188.251 16.968 188.555 18.416 188.555 20.128C188.555 21.84 188.251 23.304 187.643 24.52C187.035 25.736 186.187 26.672 185.099 27.328C184.011 27.968 182.747 28.288 181.307 28.288ZM181.307 24.736C182.251 24.736 182.987 24.32 183.515 23.488C184.059 22.656 184.331 21.536 184.331 20.128C184.331 18.704 184.059 17.608 183.515 16.84C182.987 16.056 182.251 15.664 181.307 15.664C180.379 15.664 179.643 16.056 179.099 16.84C178.555 17.608 178.283 18.704 178.283 20.128C178.283 21.536 178.555 22.656 179.099 23.488C179.643 24.32 180.379 24.736 181.307 24.736ZM190.998 28V12.4H196.902C198.022 12.4 199.054 12.552 199.998 12.856C200.942 13.144 201.702 13.656 202.278 14.392C202.854 15.128 203.142 16.144 203.142 17.44C203.142 18.56 202.91 19.488 202.446 20.224C201.982 20.96 201.374 21.536 200.622 21.952L204.006 28H199.398L196.71 22.768H195.126V28H190.998ZM195.126 19.504H196.614C198.278 19.504 199.11 18.816 199.11 17.44C199.11 16.768 198.894 16.304 198.462 16.048C198.046 15.792 197.43 15.664 196.614 15.664H195.126V19.504ZM212.15 28.288C209.974 28.288 208.35 27.648 207.278 26.368C206.206 25.088 205.67 23.12 205.67 20.464V12.4H209.798V20.944C209.798 22.336 209.982 23.32 210.35 23.896C210.734 24.456 211.334 24.736 212.15 24.736C212.966 24.736 213.566 24.456 213.95 23.896C214.35 23.32 214.55 22.336 214.55 20.944V12.4H218.534V20.464C218.534 23.12 218.014 25.088 216.974 26.368C215.95 27.648 214.342 28.288 212.15 28.288ZM221.541 28V12.4H225.957L228.309 18.784C228.453 19.216 228.589 19.664 228.717 20.128C228.845 20.592 228.981 21.056 229.125 21.52H229.221C229.365 21.056 229.501 20.592 229.629 20.128C229.757 19.664 229.893 19.216 230.037 18.784L232.293 12.4H236.709V28H232.965V23.392C232.965 22.864 232.997 22.272 233.061 21.616C233.125 20.944 233.197 20.272 233.277 19.6C233.357 18.928 233.429 18.336 233.493 17.824H233.397L232.101 21.568L230.181 26.728H227.973L226.053 21.568L224.805 17.824H224.709C224.773 18.336 224.845 18.928 224.925 19.6C225.005 20.272 225.077 20.944 225.141 21.616C225.205 22.272 225.237 22.864 225.237 23.392V28H221.541Z" fill="black"/>
</g>
<defs>
<clipPath id="clip0_522_12">
<rect width="241" height="38.13" fill="white"/>
</clipPath>
</defs>
</svg>
